<svg width="24" height="24" viewBox="0 0 24 24" fill="none" xmlns="http://www.w3.org/2000/svg">
<path fill-rule="evenodd" clip-rule="evenodd" d="M8.8741 16.6337C8.49166 16.4126 7.99412 16.4657 7.66692 16.7929L3.66692 20.7929C3.27639 21.1834 3.27639 21.8166 3.66692 22.2071C4.05744 22.5976 4.69061 22.5976 5.08113 22.2071L8.37402 18.9142V22.5C8.37402 23.0523 8.82174 23.5 9.37402 23.5C9.92631 23.5 10.374 23.0523 10.374 22.5V18.9142L13.6669 22.2071C14.0574 22.5976 14.6906 22.5976 15.0811 22.2071C15.4717 21.8166 15.4717 21.1834 15.0811 20.7929L11.0811 16.7929C10.7539 16.4657 10.2564 16.4126 9.87394 16.6337C9.72687 16.5487 9.55613 16.5 9.37402 16.5C9.19191 16.5 9.02117 16.5487 8.8741 16.6337Z" fill="white"/>
<path fill-rule="evenodd" clip-rule="evenodd" d="M1.12402 9.5C1.12402 7.98122 2.35524 6.75 3.87402 6.75H14.874C16.3928 6.75 17.624 7.98122 17.624 9.5V15.5C17.624 17.0188 16.3928 18.25 14.874 18.25H3.87402C2.35524 18.25 1.12402 17.0188 1.12402 15.5V9.5Z" fill="white"/>
<path fill-rule="evenodd" clip-rule="evenodd" d="M19.9815 7.82894C21.3113 7.16408 22.8759 8.13107 22.8759 9.61781V15.3816C22.8759 16.8684 21.3113 17.8354 19.9815 17.1705L16.4287 15.3943L17.3231 13.6054L20.8759 15.3816V9.61781L17.3231 11.3941L16.4287 9.60523L19.9815 7.82894Z" fill="white"/>
<path fill-rule="evenodd" clip-rule="evenodd" d="M11.874 4C11.3217 4 10.874 4.44772 10.874 5C10.874 5.55228 11.3217 6 11.874 6C12.4263 6 12.874 5.55228 12.874 5C12.874 4.44772 12.4263 4 11.874 4ZM8.87402 5C8.87402 3.34315 10.2172 2 11.874 2C13.5309 2 14.874 3.34315 14.874 5C14.874 6.65685 13.5309 8 11.874 8C10.2172 8 8.87402 6.65685 8.87402 5Z" fill="white"/>
<path fill-rule="evenodd" clip-rule="evenodd" d="M6.87402 2.5C5.76945 2.5 4.87402 3.39543 4.87402 4.5C4.87402 5.60457 5.76945 6.5 6.87402 6.5C7.97859 6.5 8.87402 5.60457 8.87402 4.5C8.87402 3.39543 7.97859 2.5 6.87402 2.5ZM2.87402 4.5C2.87402 2.29086 4.66488 0.5 6.87402 0.5C9.08316 0.5 10.874 2.29086 10.874 4.5C10.874 6.70914 9.08316 8.5 6.87402 8.5C4.66488 8.5 2.87402 6.70914 2.87402 4.5Z" fill="white"/>
</svg>
